# xmcd CD database file
#
# Track frame offsets:
#	150
#	16699
#	32942
#	46209
#	60742
#	74404
#	87886
#	97568
#	109550
#	121708
#	136716
#	149224
#	158717
#	172501
#	182087
#	195082
#	211181
#	223155
#	237480
#	251840
#
# Disc length: 3528 seconds
#
# Revision: 0
# Processed by: cddbd v1.5.2PL0 Copyright (c) Steve Scherf et al.
# Submitted via: CDex 1.79
#
DISCID=070dc614
DTITLE=Songs for Mum - Songs for Mum
DYEAR=2010
DGENRE=Jazz
TTITLE0=My Baby Just Cares for Me - Nina Simone
TTITLE1=Secret love - Doris Day
TTITLE2=Let's Face the Music and Dance - Fitzgerald
TTITLE3=Unforgetable - Nat King Cole
TTITLE4=Mad About the Boy
TTITLE5=That Old Devil Called Love - Billie Holiday
TTITLE6=Let There Be Love - Peggy Lee
TTITLE7=Nice Work if you can Get It - Sarah Vaughan
TTITLE8=Magic Moments - Perry Como
TTITLE9=Come Fly with Me - Sinatra
TTITLE10=How D'ya like your eggs in the morning - Dean Martin
TTITLE11=Let's Do It - Peggy Lee
TTITLE12=Hey There - Rosemary Clooney
TTITLE13=Whatever Will be, Will be - Doris Day
TTITLE14=Smile - Nat King Cole
TTITLE15=Ev'ry Time We Say Goodbye - Fitzgerald
TTITLE16=S'Wonderful - Dinah Shore
TTITLE17=Here In My Heart - Al Martino
TTITLE18=But Not For Me - Judy Garland
TTITLE19=In The Still of Night - Jo Stafford
EXTD=YEAR: 2010
EXTT0=
EXTT1=
EXTT2=
EXTT3=
EXTT4=
EXTT5=
EXTT6=
EXTT7=
EXTT8=
EXTT9=
EXTT10=
EXTT11=
EXTT12=
EXTT13=
EXTT14=
EXTT15=
EXTT16=
EXTT17=
EXTT18=
EXTT19=
PLAYORDER=
